<mxfile host="app.diagrams.net" modified="2024-05-20T17:02:22.243Z" agent="Mozilla/5.0 (Windows NT 10.0; Win64; x64; rv:126.0) Gecko/20100101 Firefox/126.0" etag="GWUO9zUGohiLrDEkXir3" version="24.4.4" type="github">
  <diagram name="Page-1" id="uBgVBPtHKW7SIP5BjiI1">
    <mxGraphModel dx="2899" dy="1116" grid="1" gridSize="10" guides="1" tooltips="1" connect="1" arrows="1" fold="1" page="1" pageScale="1" pageWidth="850" pageHeight="1100" math="0" shadow="0">
      <root>
        <mxCell id="0" />
        <mxCell id="1" parent="0" />
        <mxCell id="VbmjDNN18D_bO1DEMlyu-1" value="" style="endArrow=none;html=1;rounded=0;strokeWidth=3;fontSize=15;" edge="1" parent="1">
          <mxGeometry width="50" height="50" relative="1" as="geometry">
            <mxPoint x="410" y="220" as="sourcePoint" />
            <mxPoint x="410" y="100" as="targetPoint" />
          </mxGeometry>
        </mxCell>
        <mxCell id="VbmjDNN18D_bO1DEMlyu-2" value="" style="endArrow=none;html=1;rounded=0;strokeWidth=3;fontSize=15;" edge="1" parent="1">
          <mxGeometry width="50" height="50" relative="1" as="geometry">
            <mxPoint x="370" y="180" as="sourcePoint" />
            <mxPoint x="490" y="180" as="targetPoint" />
          </mxGeometry>
        </mxCell>
        <mxCell id="VbmjDNN18D_bO1DEMlyu-3" value="" style="endArrow=none;html=1;rounded=0;strokeWidth=3;fontSize=15;" edge="1" parent="1">
          <mxGeometry width="50" height="50" relative="1" as="geometry">
            <mxPoint x="450" y="220" as="sourcePoint" />
            <mxPoint x="450" y="100" as="targetPoint" />
          </mxGeometry>
        </mxCell>
        <mxCell id="VbmjDNN18D_bO1DEMlyu-4" value="" style="endArrow=none;html=1;rounded=0;strokeWidth=3;fontSize=15;" edge="1" parent="1">
          <mxGeometry width="50" height="50" relative="1" as="geometry">
            <mxPoint x="370" y="140" as="sourcePoint" />
            <mxPoint x="490" y="140" as="targetPoint" />
          </mxGeometry>
        </mxCell>
        <mxCell id="VbmjDNN18D_bO1DEMlyu-5" value="" style="ellipse;whiteSpace=wrap;html=1;perimeterSpacing=0;strokeWidth=4;fillColor=none;strokeColor=#6c8ebf;fontSize=15;" vertex="1" parent="1">
          <mxGeometry x="460" y="150" width="20" height="20" as="geometry" />
        </mxCell>
        <mxCell id="VbmjDNN18D_bO1DEMlyu-6" value="" style="endArrow=none;html=1;rounded=0;strokeWidth=4;strokeColor=#EA6B66;fontSize=15;" edge="1" parent="1">
          <mxGeometry width="50" height="50" relative="1" as="geometry">
            <mxPoint x="460" y="190" as="sourcePoint" />
            <mxPoint x="480" y="210" as="targetPoint" />
          </mxGeometry>
        </mxCell>
        <mxCell id="VbmjDNN18D_bO1DEMlyu-7" value="" style="endArrow=none;html=1;rounded=0;strokeWidth=4;strokeColor=#EA6B66;fontSize=15;" edge="1" parent="1">
          <mxGeometry width="50" height="50" relative="1" as="geometry">
            <mxPoint x="460" y="210" as="sourcePoint" />
            <mxPoint x="480" y="190" as="targetPoint" />
          </mxGeometry>
        </mxCell>
        <mxCell id="VbmjDNN18D_bO1DEMlyu-8" value="" style="endArrow=none;html=1;rounded=0;strokeWidth=4;strokeColor=#EA6B66;fontSize=15;" edge="1" parent="1">
          <mxGeometry width="50" height="50" relative="1" as="geometry">
            <mxPoint x="380" y="110" as="sourcePoint" />
            <mxPoint x="400" y="130" as="targetPoint" />
          </mxGeometry>
        </mxCell>
        <mxCell id="VbmjDNN18D_bO1DEMlyu-9" value="" style="endArrow=none;html=1;rounded=0;strokeWidth=4;strokeColor=#EA6B66;fontSize=15;" edge="1" parent="1">
          <mxGeometry width="50" height="50" relative="1" as="geometry">
            <mxPoint x="380" y="130" as="sourcePoint" />
            <mxPoint x="400" y="110" as="targetPoint" />
          </mxGeometry>
        </mxCell>
        <mxCell id="VbmjDNN18D_bO1DEMlyu-10" value="" style="ellipse;whiteSpace=wrap;html=1;perimeterSpacing=0;strokeWidth=4;fillColor=none;strokeColor=#6c8ebf;fontSize=15;" vertex="1" parent="1">
          <mxGeometry x="420" y="150" width="20" height="20" as="geometry" />
        </mxCell>
        <mxCell id="VbmjDNN18D_bO1DEMlyu-11" value="" style="endArrow=none;html=1;rounded=0;strokeWidth=4;strokeColor=#EA6B66;fontSize=15;" edge="1" parent="1">
          <mxGeometry width="50" height="50" relative="1" as="geometry">
            <mxPoint x="380" y="150" as="sourcePoint" />
            <mxPoint x="400" y="170" as="targetPoint" />
          </mxGeometry>
        </mxCell>
        <mxCell id="VbmjDNN18D_bO1DEMlyu-12" value="" style="endArrow=none;html=1;rounded=0;strokeWidth=4;strokeColor=#EA6B66;fontSize=15;" edge="1" parent="1">
          <mxGeometry width="50" height="50" relative="1" as="geometry">
            <mxPoint x="380" y="170" as="sourcePoint" />
            <mxPoint x="400" y="150" as="targetPoint" />
          </mxGeometry>
        </mxCell>
        <mxCell id="VbmjDNN18D_bO1DEMlyu-13" value="" style="endArrow=none;html=1;rounded=0;strokeWidth=3;fontSize=15;" edge="1" parent="1">
          <mxGeometry width="50" height="50" relative="1" as="geometry">
            <mxPoint x="330" y="460" as="sourcePoint" />
            <mxPoint x="330" y="340" as="targetPoint" />
          </mxGeometry>
        </mxCell>
        <mxCell id="VbmjDNN18D_bO1DEMlyu-14" value="" style="endArrow=none;html=1;rounded=0;strokeWidth=3;fontSize=15;" edge="1" parent="1">
          <mxGeometry width="50" height="50" relative="1" as="geometry">
            <mxPoint x="290" y="420" as="sourcePoint" />
            <mxPoint x="410" y="420" as="targetPoint" />
          </mxGeometry>
        </mxCell>
        <mxCell id="VbmjDNN18D_bO1DEMlyu-15" value="" style="endArrow=none;html=1;rounded=0;strokeWidth=3;fontSize=15;" edge="1" parent="1">
          <mxGeometry width="50" height="50" relative="1" as="geometry">
            <mxPoint x="370" y="460" as="sourcePoint" />
            <mxPoint x="370" y="340" as="targetPoint" />
          </mxGeometry>
        </mxCell>
        <mxCell id="VbmjDNN18D_bO1DEMlyu-16" value="" style="endArrow=none;html=1;rounded=0;strokeWidth=3;fontSize=15;" edge="1" parent="1">
          <mxGeometry width="50" height="50" relative="1" as="geometry">
            <mxPoint x="290" y="380" as="sourcePoint" />
            <mxPoint x="410" y="380" as="targetPoint" />
          </mxGeometry>
        </mxCell>
        <mxCell id="VbmjDNN18D_bO1DEMlyu-17" value="" style="ellipse;whiteSpace=wrap;html=1;perimeterSpacing=0;strokeWidth=4;fillColor=none;strokeColor=#6c8ebf;fontSize=15;" vertex="1" parent="1">
          <mxGeometry x="380" y="390" width="20" height="20" as="geometry" />
        </mxCell>
        <mxCell id="VbmjDNN18D_bO1DEMlyu-18" value="" style="endArrow=none;html=1;rounded=0;strokeWidth=4;strokeColor=#EA6B66;fontSize=15;" edge="1" parent="1">
          <mxGeometry width="50" height="50" relative="1" as="geometry">
            <mxPoint x="380" y="430" as="sourcePoint" />
            <mxPoint x="400" y="450" as="targetPoint" />
          </mxGeometry>
        </mxCell>
        <mxCell id="VbmjDNN18D_bO1DEMlyu-19" value="" style="endArrow=none;html=1;rounded=0;strokeWidth=4;strokeColor=#EA6B66;fontSize=15;" edge="1" parent="1">
          <mxGeometry width="50" height="50" relative="1" as="geometry">
            <mxPoint x="380" y="450" as="sourcePoint" />
            <mxPoint x="400" y="430" as="targetPoint" />
          </mxGeometry>
        </mxCell>
        <mxCell id="VbmjDNN18D_bO1DEMlyu-20" value="" style="endArrow=none;html=1;rounded=0;strokeWidth=4;strokeColor=#EA6B66;fontSize=15;" edge="1" parent="1">
          <mxGeometry width="50" height="50" relative="1" as="geometry">
            <mxPoint x="300" y="350" as="sourcePoint" />
            <mxPoint x="320" y="370" as="targetPoint" />
          </mxGeometry>
        </mxCell>
        <mxCell id="VbmjDNN18D_bO1DEMlyu-21" value="" style="endArrow=none;html=1;rounded=0;strokeWidth=4;strokeColor=#EA6B66;fontSize=15;" edge="1" parent="1">
          <mxGeometry width="50" height="50" relative="1" as="geometry">
            <mxPoint x="300" y="370" as="sourcePoint" />
            <mxPoint x="320" y="350" as="targetPoint" />
          </mxGeometry>
        </mxCell>
        <mxCell id="VbmjDNN18D_bO1DEMlyu-22" value="" style="ellipse;whiteSpace=wrap;html=1;perimeterSpacing=0;strokeWidth=4;fillColor=none;strokeColor=#6c8ebf;fontSize=15;" vertex="1" parent="1">
          <mxGeometry x="340" y="390" width="20" height="20" as="geometry" />
        </mxCell>
        <mxCell id="VbmjDNN18D_bO1DEMlyu-23" value="" style="endArrow=none;html=1;rounded=0;strokeWidth=4;strokeColor=#EA6B66;fontSize=15;" edge="1" parent="1">
          <mxGeometry width="50" height="50" relative="1" as="geometry">
            <mxPoint x="300" y="390" as="sourcePoint" />
            <mxPoint x="320" y="410" as="targetPoint" />
          </mxGeometry>
        </mxCell>
        <mxCell id="VbmjDNN18D_bO1DEMlyu-24" value="" style="endArrow=none;html=1;rounded=0;strokeWidth=4;strokeColor=#EA6B66;fontSize=15;" edge="1" parent="1">
          <mxGeometry width="50" height="50" relative="1" as="geometry">
            <mxPoint x="300" y="410" as="sourcePoint" />
            <mxPoint x="320" y="390" as="targetPoint" />
          </mxGeometry>
        </mxCell>
        <mxCell id="VbmjDNN18D_bO1DEMlyu-25" value="" style="endArrow=none;html=1;rounded=0;strokeWidth=3;fontSize=15;" edge="1" parent="1">
          <mxGeometry width="50" height="50" relative="1" as="geometry">
            <mxPoint x="170" y="460" as="sourcePoint" />
            <mxPoint x="170" y="340" as="targetPoint" />
          </mxGeometry>
        </mxCell>
        <mxCell id="VbmjDNN18D_bO1DEMlyu-26" value="" style="endArrow=none;html=1;rounded=0;strokeWidth=3;fontSize=15;" edge="1" parent="1">
          <mxGeometry width="50" height="50" relative="1" as="geometry">
            <mxPoint x="130" y="420" as="sourcePoint" />
            <mxPoint x="250" y="420" as="targetPoint" />
          </mxGeometry>
        </mxCell>
        <mxCell id="VbmjDNN18D_bO1DEMlyu-27" value="" style="endArrow=none;html=1;rounded=0;strokeWidth=3;fontSize=15;" edge="1" parent="1">
          <mxGeometry width="50" height="50" relative="1" as="geometry">
            <mxPoint x="210" y="460" as="sourcePoint" />
            <mxPoint x="210" y="340" as="targetPoint" />
          </mxGeometry>
        </mxCell>
        <mxCell id="VbmjDNN18D_bO1DEMlyu-28" value="" style="endArrow=none;html=1;rounded=0;strokeWidth=3;fontSize=15;" edge="1" parent="1">
          <mxGeometry width="50" height="50" relative="1" as="geometry">
            <mxPoint x="130" y="380" as="sourcePoint" />
            <mxPoint x="250" y="380" as="targetPoint" />
          </mxGeometry>
        </mxCell>
        <mxCell id="VbmjDNN18D_bO1DEMlyu-29" value="" style="ellipse;whiteSpace=wrap;html=1;perimeterSpacing=0;strokeWidth=4;fillColor=none;strokeColor=#6c8ebf;fontSize=15;" vertex="1" parent="1">
          <mxGeometry x="220" y="390" width="20" height="20" as="geometry" />
        </mxCell>
        <mxCell id="VbmjDNN18D_bO1DEMlyu-30" value="" style="endArrow=none;html=1;rounded=0;strokeWidth=4;strokeColor=#EA6B66;fontSize=15;" edge="1" parent="1">
          <mxGeometry width="50" height="50" relative="1" as="geometry">
            <mxPoint x="220" y="430" as="sourcePoint" />
            <mxPoint x="240" y="450" as="targetPoint" />
          </mxGeometry>
        </mxCell>
        <mxCell id="VbmjDNN18D_bO1DEMlyu-31" value="" style="endArrow=none;html=1;rounded=0;strokeWidth=4;strokeColor=#EA6B66;fontSize=15;" edge="1" parent="1">
          <mxGeometry width="50" height="50" relative="1" as="geometry">
            <mxPoint x="220" y="450" as="sourcePoint" />
            <mxPoint x="240" y="430" as="targetPoint" />
          </mxGeometry>
        </mxCell>
        <mxCell id="VbmjDNN18D_bO1DEMlyu-32" value="" style="endArrow=none;html=1;rounded=0;strokeWidth=4;strokeColor=#EA6B66;fontSize=15;" edge="1" parent="1">
          <mxGeometry width="50" height="50" relative="1" as="geometry">
            <mxPoint x="140" y="350" as="sourcePoint" />
            <mxPoint x="160" y="370" as="targetPoint" />
          </mxGeometry>
        </mxCell>
        <mxCell id="VbmjDNN18D_bO1DEMlyu-33" value="" style="endArrow=none;html=1;rounded=0;strokeWidth=4;strokeColor=#EA6B66;fontSize=15;" edge="1" parent="1">
          <mxGeometry width="50" height="50" relative="1" as="geometry">
            <mxPoint x="140" y="370" as="sourcePoint" />
            <mxPoint x="160" y="350" as="targetPoint" />
          </mxGeometry>
        </mxCell>
        <mxCell id="VbmjDNN18D_bO1DEMlyu-34" value="" style="ellipse;whiteSpace=wrap;html=1;perimeterSpacing=0;strokeWidth=4;fillColor=none;strokeColor=#6c8ebf;fontSize=15;" vertex="1" parent="1">
          <mxGeometry x="180" y="390" width="20" height="20" as="geometry" />
        </mxCell>
        <mxCell id="VbmjDNN18D_bO1DEMlyu-35" value="" style="endArrow=none;html=1;rounded=0;strokeWidth=4;strokeColor=#EA6B66;fontSize=15;" edge="1" parent="1">
          <mxGeometry width="50" height="50" relative="1" as="geometry">
            <mxPoint x="140" y="390" as="sourcePoint" />
            <mxPoint x="160" y="410" as="targetPoint" />
          </mxGeometry>
        </mxCell>
        <mxCell id="VbmjDNN18D_bO1DEMlyu-36" value="" style="endArrow=none;html=1;rounded=0;strokeWidth=4;strokeColor=#EA6B66;fontSize=15;" edge="1" parent="1">
          <mxGeometry width="50" height="50" relative="1" as="geometry">
            <mxPoint x="140" y="410" as="sourcePoint" />
            <mxPoint x="160" y="390" as="targetPoint" />
          </mxGeometry>
        </mxCell>
        <mxCell id="VbmjDNN18D_bO1DEMlyu-37" value="" style="endArrow=none;html=1;rounded=0;strokeWidth=3;fontSize=15;" edge="1" parent="1">
          <mxGeometry width="50" height="50" relative="1" as="geometry">
            <mxPoint x="490" y="460" as="sourcePoint" />
            <mxPoint x="490" y="340" as="targetPoint" />
          </mxGeometry>
        </mxCell>
        <mxCell id="VbmjDNN18D_bO1DEMlyu-38" value="" style="endArrow=none;html=1;rounded=0;strokeWidth=3;fontSize=15;" edge="1" parent="1">
          <mxGeometry width="50" height="50" relative="1" as="geometry">
            <mxPoint x="450" y="420" as="sourcePoint" />
            <mxPoint x="570" y="420" as="targetPoint" />
          </mxGeometry>
        </mxCell>
        <mxCell id="VbmjDNN18D_bO1DEMlyu-39" value="" style="endArrow=none;html=1;rounded=0;strokeWidth=3;fontSize=15;" edge="1" parent="1">
          <mxGeometry width="50" height="50" relative="1" as="geometry">
            <mxPoint x="530" y="460" as="sourcePoint" />
            <mxPoint x="530" y="340" as="targetPoint" />
          </mxGeometry>
        </mxCell>
        <mxCell id="VbmjDNN18D_bO1DEMlyu-40" value="" style="endArrow=none;html=1;rounded=0;strokeWidth=3;fontSize=15;" edge="1" parent="1">
          <mxGeometry width="50" height="50" relative="1" as="geometry">
            <mxPoint x="450" y="380" as="sourcePoint" />
            <mxPoint x="570" y="380" as="targetPoint" />
          </mxGeometry>
        </mxCell>
        <mxCell id="VbmjDNN18D_bO1DEMlyu-41" value="" style="ellipse;whiteSpace=wrap;html=1;perimeterSpacing=0;strokeWidth=4;fillColor=none;strokeColor=#6c8ebf;fontSize=15;" vertex="1" parent="1">
          <mxGeometry x="540" y="390" width="20" height="20" as="geometry" />
        </mxCell>
        <mxCell id="VbmjDNN18D_bO1DEMlyu-42" value="" style="endArrow=none;html=1;rounded=0;strokeWidth=4;strokeColor=#EA6B66;fontSize=15;" edge="1" parent="1">
          <mxGeometry width="50" height="50" relative="1" as="geometry">
            <mxPoint x="540" y="430" as="sourcePoint" />
            <mxPoint x="560" y="450" as="targetPoint" />
          </mxGeometry>
        </mxCell>
        <mxCell id="VbmjDNN18D_bO1DEMlyu-43" value="" style="endArrow=none;html=1;rounded=0;strokeWidth=4;strokeColor=#EA6B66;fontSize=15;" edge="1" parent="1">
          <mxGeometry width="50" height="50" relative="1" as="geometry">
            <mxPoint x="540" y="450" as="sourcePoint" />
            <mxPoint x="560" y="430" as="targetPoint" />
          </mxGeometry>
        </mxCell>
        <mxCell id="VbmjDNN18D_bO1DEMlyu-44" value="" style="endArrow=none;html=1;rounded=0;strokeWidth=4;strokeColor=#EA6B66;fontSize=15;" edge="1" parent="1">
          <mxGeometry width="50" height="50" relative="1" as="geometry">
            <mxPoint x="460" y="350" as="sourcePoint" />
            <mxPoint x="480" y="370" as="targetPoint" />
          </mxGeometry>
        </mxCell>
        <mxCell id="VbmjDNN18D_bO1DEMlyu-45" value="" style="endArrow=none;html=1;rounded=0;strokeWidth=4;strokeColor=#EA6B66;fontSize=15;" edge="1" parent="1">
          <mxGeometry width="50" height="50" relative="1" as="geometry">
            <mxPoint x="460" y="370" as="sourcePoint" />
            <mxPoint x="480" y="350" as="targetPoint" />
          </mxGeometry>
        </mxCell>
        <mxCell id="VbmjDNN18D_bO1DEMlyu-46" value="" style="ellipse;whiteSpace=wrap;html=1;perimeterSpacing=0;strokeWidth=4;fillColor=none;strokeColor=#6c8ebf;fontSize=15;" vertex="1" parent="1">
          <mxGeometry x="500" y="390" width="20" height="20" as="geometry" />
        </mxCell>
        <mxCell id="VbmjDNN18D_bO1DEMlyu-47" value="" style="endArrow=none;html=1;rounded=0;strokeWidth=4;strokeColor=#EA6B66;fontSize=15;" edge="1" parent="1">
          <mxGeometry width="50" height="50" relative="1" as="geometry">
            <mxPoint x="460" y="390" as="sourcePoint" />
            <mxPoint x="480" y="410" as="targetPoint" />
          </mxGeometry>
        </mxCell>
        <mxCell id="VbmjDNN18D_bO1DEMlyu-48" value="" style="endArrow=none;html=1;rounded=0;strokeWidth=4;strokeColor=#EA6B66;fontSize=15;" edge="1" parent="1">
          <mxGeometry width="50" height="50" relative="1" as="geometry">
            <mxPoint x="460" y="410" as="sourcePoint" />
            <mxPoint x="480" y="390" as="targetPoint" />
          </mxGeometry>
        </mxCell>
        <mxCell id="VbmjDNN18D_bO1DEMlyu-49" value="" style="ellipse;whiteSpace=wrap;html=1;perimeterSpacing=0;strokeWidth=4;fillColor=none;strokeColor=#6c8ebf;fontSize=15;" vertex="1" parent="1">
          <mxGeometry x="140" y="430" width="20" height="20" as="geometry" />
        </mxCell>
        <mxCell id="VbmjDNN18D_bO1DEMlyu-50" value="" style="ellipse;whiteSpace=wrap;html=1;perimeterSpacing=0;strokeWidth=4;fillColor=none;strokeColor=#6c8ebf;fontSize=15;" vertex="1" parent="1">
          <mxGeometry x="340" y="430" width="20" height="20" as="geometry" />
        </mxCell>
        <mxCell id="VbmjDNN18D_bO1DEMlyu-51" value="" style="ellipse;whiteSpace=wrap;html=1;perimeterSpacing=0;strokeWidth=4;fillColor=none;strokeColor=#6c8ebf;fontSize=15;" vertex="1" parent="1">
          <mxGeometry x="540" y="350" width="20" height="20" as="geometry" />
        </mxCell>
        <mxCell id="VbmjDNN18D_bO1DEMlyu-52" value="" style="endArrow=none;html=1;rounded=0;strokeWidth=4;strokeColor=#97D077;startArrow=classic;startFill=1;endFill=0;" edge="1" parent="1">
          <mxGeometry width="50" height="50" relative="1" as="geometry">
            <mxPoint x="430" y="240" as="sourcePoint" />
            <mxPoint x="190" y="330" as="targetPoint" />
          </mxGeometry>
        </mxCell>
        <mxCell id="VbmjDNN18D_bO1DEMlyu-53" value="" style="endArrow=classic;html=1;rounded=0;strokeWidth=4;" edge="1" parent="1">
          <mxGeometry width="50" height="50" relative="1" as="geometry">
            <mxPoint x="430" y="240" as="sourcePoint" />
            <mxPoint x="510" y="330" as="targetPoint" />
          </mxGeometry>
        </mxCell>
        <mxCell id="VbmjDNN18D_bO1DEMlyu-54" value="" style="endArrow=classic;html=1;rounded=0;strokeWidth=4;" edge="1" parent="1">
          <mxGeometry width="50" height="50" relative="1" as="geometry">
            <mxPoint x="430" y="240" as="sourcePoint" />
            <mxPoint x="350" y="330" as="targetPoint" />
          </mxGeometry>
        </mxCell>
        <mxCell id="VbmjDNN18D_bO1DEMlyu-55" value="" style="endArrow=none;html=1;rounded=0;strokeWidth=3;fontSize=15;" edge="1" parent="1">
          <mxGeometry width="50" height="50" relative="1" as="geometry">
            <mxPoint x="650" y="460" as="sourcePoint" />
            <mxPoint x="650" y="340" as="targetPoint" />
          </mxGeometry>
        </mxCell>
        <mxCell id="VbmjDNN18D_bO1DEMlyu-56" value="" style="endArrow=none;html=1;rounded=0;strokeWidth=3;fontSize=15;" edge="1" parent="1">
          <mxGeometry width="50" height="50" relative="1" as="geometry">
            <mxPoint x="610" y="420" as="sourcePoint" />
            <mxPoint x="730" y="420" as="targetPoint" />
          </mxGeometry>
        </mxCell>
        <mxCell id="VbmjDNN18D_bO1DEMlyu-57" value="" style="endArrow=none;html=1;rounded=0;strokeWidth=3;fontSize=15;" edge="1" parent="1">
          <mxGeometry width="50" height="50" relative="1" as="geometry">
            <mxPoint x="690" y="460" as="sourcePoint" />
            <mxPoint x="690" y="340" as="targetPoint" />
          </mxGeometry>
        </mxCell>
        <mxCell id="VbmjDNN18D_bO1DEMlyu-58" value="" style="endArrow=none;html=1;rounded=0;strokeWidth=3;fontSize=15;" edge="1" parent="1">
          <mxGeometry width="50" height="50" relative="1" as="geometry">
            <mxPoint x="610" y="380" as="sourcePoint" />
            <mxPoint x="730" y="380" as="targetPoint" />
          </mxGeometry>
        </mxCell>
        <mxCell id="VbmjDNN18D_bO1DEMlyu-59" value="" style="ellipse;whiteSpace=wrap;html=1;perimeterSpacing=0;strokeWidth=4;fillColor=none;strokeColor=#6c8ebf;fontSize=15;" vertex="1" parent="1">
          <mxGeometry x="700" y="390" width="20" height="20" as="geometry" />
        </mxCell>
        <mxCell id="VbmjDNN18D_bO1DEMlyu-60" value="" style="endArrow=none;html=1;rounded=0;strokeWidth=4;strokeColor=#EA6B66;fontSize=15;" edge="1" parent="1">
          <mxGeometry width="50" height="50" relative="1" as="geometry">
            <mxPoint x="700" y="430" as="sourcePoint" />
            <mxPoint x="720" y="450" as="targetPoint" />
          </mxGeometry>
        </mxCell>
        <mxCell id="VbmjDNN18D_bO1DEMlyu-61" value="" style="endArrow=none;html=1;rounded=0;strokeWidth=4;strokeColor=#EA6B66;fontSize=15;" edge="1" parent="1">
          <mxGeometry width="50" height="50" relative="1" as="geometry">
            <mxPoint x="700" y="450" as="sourcePoint" />
            <mxPoint x="720" y="430" as="targetPoint" />
          </mxGeometry>
        </mxCell>
        <mxCell id="VbmjDNN18D_bO1DEMlyu-62" value="" style="endArrow=none;html=1;rounded=0;strokeWidth=4;strokeColor=#EA6B66;fontSize=15;" edge="1" parent="1">
          <mxGeometry width="50" height="50" relative="1" as="geometry">
            <mxPoint x="620" y="350" as="sourcePoint" />
            <mxPoint x="640" y="370" as="targetPoint" />
          </mxGeometry>
        </mxCell>
        <mxCell id="VbmjDNN18D_bO1DEMlyu-63" value="" style="endArrow=none;html=1;rounded=0;strokeWidth=4;strokeColor=#EA6B66;fontSize=15;" edge="1" parent="1">
          <mxGeometry width="50" height="50" relative="1" as="geometry">
            <mxPoint x="620" y="370" as="sourcePoint" />
            <mxPoint x="640" y="350" as="targetPoint" />
          </mxGeometry>
        </mxCell>
        <mxCell id="VbmjDNN18D_bO1DEMlyu-64" value="" style="ellipse;whiteSpace=wrap;html=1;perimeterSpacing=0;strokeWidth=4;fillColor=none;strokeColor=#6c8ebf;fontSize=15;" vertex="1" parent="1">
          <mxGeometry x="660" y="390" width="20" height="20" as="geometry" />
        </mxCell>
        <mxCell id="VbmjDNN18D_bO1DEMlyu-65" value="" style="endArrow=none;html=1;rounded=0;strokeWidth=4;strokeColor=#EA6B66;fontSize=15;" edge="1" parent="1">
          <mxGeometry width="50" height="50" relative="1" as="geometry">
            <mxPoint x="620" y="390" as="sourcePoint" />
            <mxPoint x="640" y="410" as="targetPoint" />
          </mxGeometry>
        </mxCell>
        <mxCell id="VbmjDNN18D_bO1DEMlyu-66" value="" style="endArrow=none;html=1;rounded=0;strokeWidth=4;strokeColor=#EA6B66;fontSize=15;" edge="1" parent="1">
          <mxGeometry width="50" height="50" relative="1" as="geometry">
            <mxPoint x="620" y="410" as="sourcePoint" />
            <mxPoint x="640" y="390" as="targetPoint" />
          </mxGeometry>
        </mxCell>
        <mxCell id="VbmjDNN18D_bO1DEMlyu-67" value="" style="ellipse;whiteSpace=wrap;html=1;perimeterSpacing=0;strokeWidth=4;fillColor=none;strokeColor=#6c8ebf;fontSize=15;" vertex="1" parent="1">
          <mxGeometry x="660" y="350" width="20" height="20" as="geometry" />
        </mxCell>
        <mxCell id="VbmjDNN18D_bO1DEMlyu-68" value="" style="endArrow=classic;html=1;rounded=0;strokeWidth=4;" edge="1" parent="1">
          <mxGeometry width="50" height="50" relative="1" as="geometry">
            <mxPoint x="430" y="240" as="sourcePoint" />
            <mxPoint x="670" y="330" as="targetPoint" />
          </mxGeometry>
        </mxCell>
        <mxCell id="VbmjDNN18D_bO1DEMlyu-69" value="" style="endArrow=classic;html=1;rounded=0;strokeWidth=4;strokeColor=#000000;dashed=1;" edge="1" parent="1">
          <mxGeometry width="50" height="50" relative="1" as="geometry">
            <mxPoint x="190" y="470" as="sourcePoint" />
            <mxPoint x="190" y="560" as="targetPoint" />
          </mxGeometry>
        </mxCell>
        <mxCell id="VbmjDNN18D_bO1DEMlyu-70" value="" style="endArrow=none;html=1;rounded=0;strokeWidth=3;fontSize=15;" edge="1" parent="1">
          <mxGeometry width="50" height="50" relative="1" as="geometry">
            <mxPoint x="170" y="690" as="sourcePoint" />
            <mxPoint x="170" y="570" as="targetPoint" />
          </mxGeometry>
        </mxCell>
        <mxCell id="VbmjDNN18D_bO1DEMlyu-71" value="" style="endArrow=none;html=1;rounded=0;strokeWidth=3;fontSize=15;" edge="1" parent="1">
          <mxGeometry width="50" height="50" relative="1" as="geometry">
            <mxPoint x="130" y="650" as="sourcePoint" />
            <mxPoint x="250" y="650" as="targetPoint" />
          </mxGeometry>
        </mxCell>
        <mxCell id="VbmjDNN18D_bO1DEMlyu-72" value="" style="endArrow=none;html=1;rounded=0;strokeWidth=3;fontSize=15;" edge="1" parent="1">
          <mxGeometry width="50" height="50" relative="1" as="geometry">
            <mxPoint x="210" y="690" as="sourcePoint" />
            <mxPoint x="210" y="570" as="targetPoint" />
          </mxGeometry>
        </mxCell>
        <mxCell id="VbmjDNN18D_bO1DEMlyu-73" value="" style="endArrow=none;html=1;rounded=0;strokeWidth=3;fontSize=15;" edge="1" parent="1">
          <mxGeometry width="50" height="50" relative="1" as="geometry">
            <mxPoint x="130" y="610" as="sourcePoint" />
            <mxPoint x="250" y="610" as="targetPoint" />
          </mxGeometry>
        </mxCell>
        <mxCell id="VbmjDNN18D_bO1DEMlyu-74" value="" style="ellipse;whiteSpace=wrap;html=1;perimeterSpacing=0;strokeWidth=4;fillColor=none;strokeColor=#6c8ebf;fontSize=15;" vertex="1" parent="1">
          <mxGeometry x="220" y="620" width="20" height="20" as="geometry" />
        </mxCell>
        <mxCell id="VbmjDNN18D_bO1DEMlyu-75" value="" style="endArrow=none;html=1;rounded=0;strokeWidth=4;strokeColor=#EA6B66;fontSize=15;" edge="1" parent="1">
          <mxGeometry width="50" height="50" relative="1" as="geometry">
            <mxPoint x="220" y="660" as="sourcePoint" />
            <mxPoint x="240" y="680" as="targetPoint" />
          </mxGeometry>
        </mxCell>
        <mxCell id="VbmjDNN18D_bO1DEMlyu-76" value="" style="endArrow=none;html=1;rounded=0;strokeWidth=4;strokeColor=#EA6B66;fontSize=15;" edge="1" parent="1">
          <mxGeometry width="50" height="50" relative="1" as="geometry">
            <mxPoint x="220" y="680" as="sourcePoint" />
            <mxPoint x="240" y="660" as="targetPoint" />
          </mxGeometry>
        </mxCell>
        <mxCell id="VbmjDNN18D_bO1DEMlyu-77" value="" style="endArrow=none;html=1;rounded=0;strokeWidth=4;strokeColor=#EA6B66;fontSize=15;" edge="1" parent="1">
          <mxGeometry width="50" height="50" relative="1" as="geometry">
            <mxPoint x="140" y="580" as="sourcePoint" />
            <mxPoint x="160" y="600" as="targetPoint" />
          </mxGeometry>
        </mxCell>
        <mxCell id="VbmjDNN18D_bO1DEMlyu-78" value="" style="endArrow=none;html=1;rounded=0;strokeWidth=4;strokeColor=#EA6B66;fontSize=15;" edge="1" parent="1">
          <mxGeometry width="50" height="50" relative="1" as="geometry">
            <mxPoint x="140" y="600" as="sourcePoint" />
            <mxPoint x="160" y="580" as="targetPoint" />
          </mxGeometry>
        </mxCell>
        <mxCell id="VbmjDNN18D_bO1DEMlyu-79" value="" style="ellipse;whiteSpace=wrap;html=1;perimeterSpacing=0;strokeWidth=4;fillColor=none;strokeColor=#6c8ebf;fontSize=15;" vertex="1" parent="1">
          <mxGeometry x="180" y="620" width="20" height="20" as="geometry" />
        </mxCell>
        <mxCell id="VbmjDNN18D_bO1DEMlyu-80" value="" style="endArrow=none;html=1;rounded=0;strokeWidth=4;strokeColor=#EA6B66;fontSize=15;" edge="1" parent="1">
          <mxGeometry width="50" height="50" relative="1" as="geometry">
            <mxPoint x="140" y="620" as="sourcePoint" />
            <mxPoint x="160" y="640" as="targetPoint" />
          </mxGeometry>
        </mxCell>
        <mxCell id="VbmjDNN18D_bO1DEMlyu-81" value="" style="endArrow=none;html=1;rounded=0;strokeWidth=4;strokeColor=#EA6B66;fontSize=15;" edge="1" parent="1">
          <mxGeometry width="50" height="50" relative="1" as="geometry">
            <mxPoint x="140" y="640" as="sourcePoint" />
            <mxPoint x="160" y="620" as="targetPoint" />
          </mxGeometry>
        </mxCell>
        <mxCell id="VbmjDNN18D_bO1DEMlyu-82" value="" style="ellipse;whiteSpace=wrap;html=1;perimeterSpacing=0;strokeWidth=4;fillColor=none;strokeColor=#6c8ebf;fontSize=15;" vertex="1" parent="1">
          <mxGeometry x="140" y="660" width="20" height="20" as="geometry" />
        </mxCell>
        <mxCell id="VbmjDNN18D_bO1DEMlyu-83" value="" style="endArrow=none;html=1;rounded=0;strokeWidth=4;strokeColor=#EA6B66;fontSize=15;" edge="1" parent="1">
          <mxGeometry width="50" height="50" relative="1" as="geometry">
            <mxPoint x="180" y="580" as="sourcePoint" />
            <mxPoint x="200" y="600" as="targetPoint" />
          </mxGeometry>
        </mxCell>
        <mxCell id="VbmjDNN18D_bO1DEMlyu-84" value="" style="endArrow=none;html=1;rounded=0;strokeWidth=4;strokeColor=#EA6B66;fontSize=15;" edge="1" parent="1">
          <mxGeometry width="50" height="50" relative="1" as="geometry">
            <mxPoint x="180" y="600" as="sourcePoint" />
            <mxPoint x="200" y="580" as="targetPoint" />
          </mxGeometry>
        </mxCell>
        <mxCell id="VbmjDNN18D_bO1DEMlyu-85" value="" style="endArrow=none;html=1;rounded=0;strokeWidth=3;fontSize=15;" edge="1" parent="1">
          <mxGeometry width="50" height="50" relative="1" as="geometry">
            <mxPoint x="330" y="690" as="sourcePoint" />
            <mxPoint x="330" y="570" as="targetPoint" />
          </mxGeometry>
        </mxCell>
        <mxCell id="VbmjDNN18D_bO1DEMlyu-86" value="" style="endArrow=none;html=1;rounded=0;strokeWidth=3;fontSize=15;" edge="1" parent="1">
          <mxGeometry width="50" height="50" relative="1" as="geometry">
            <mxPoint x="290" y="650" as="sourcePoint" />
            <mxPoint x="410" y="650" as="targetPoint" />
          </mxGeometry>
        </mxCell>
        <mxCell id="VbmjDNN18D_bO1DEMlyu-87" value="" style="endArrow=none;html=1;rounded=0;strokeWidth=3;fontSize=15;" edge="1" parent="1">
          <mxGeometry width="50" height="50" relative="1" as="geometry">
            <mxPoint x="370" y="690" as="sourcePoint" />
            <mxPoint x="370" y="570" as="targetPoint" />
          </mxGeometry>
        </mxCell>
        <mxCell id="VbmjDNN18D_bO1DEMlyu-88" value="" style="endArrow=none;html=1;rounded=0;strokeWidth=3;fontSize=15;" edge="1" parent="1">
          <mxGeometry width="50" height="50" relative="1" as="geometry">
            <mxPoint x="290" y="610" as="sourcePoint" />
            <mxPoint x="410" y="610" as="targetPoint" />
          </mxGeometry>
        </mxCell>
        <mxCell id="VbmjDNN18D_bO1DEMlyu-89" value="" style="ellipse;whiteSpace=wrap;html=1;perimeterSpacing=0;strokeWidth=4;fillColor=none;strokeColor=#6c8ebf;fontSize=15;" vertex="1" parent="1">
          <mxGeometry x="380" y="620" width="20" height="20" as="geometry" />
        </mxCell>
        <mxCell id="VbmjDNN18D_bO1DEMlyu-90" value="" style="endArrow=none;html=1;rounded=0;strokeWidth=4;strokeColor=#EA6B66;fontSize=15;" edge="1" parent="1">
          <mxGeometry width="50" height="50" relative="1" as="geometry">
            <mxPoint x="380" y="660" as="sourcePoint" />
            <mxPoint x="400" y="680" as="targetPoint" />
          </mxGeometry>
        </mxCell>
        <mxCell id="VbmjDNN18D_bO1DEMlyu-91" value="" style="endArrow=none;html=1;rounded=0;strokeWidth=4;strokeColor=#EA6B66;fontSize=15;" edge="1" parent="1">
          <mxGeometry width="50" height="50" relative="1" as="geometry">
            <mxPoint x="380" y="680" as="sourcePoint" />
            <mxPoint x="400" y="660" as="targetPoint" />
          </mxGeometry>
        </mxCell>
        <mxCell id="VbmjDNN18D_bO1DEMlyu-92" value="" style="endArrow=none;html=1;rounded=0;strokeWidth=4;strokeColor=#EA6B66;fontSize=15;" edge="1" parent="1">
          <mxGeometry width="50" height="50" relative="1" as="geometry">
            <mxPoint x="300" y="580" as="sourcePoint" />
            <mxPoint x="320" y="600" as="targetPoint" />
          </mxGeometry>
        </mxCell>
        <mxCell id="VbmjDNN18D_bO1DEMlyu-93" value="" style="endArrow=none;html=1;rounded=0;strokeWidth=4;strokeColor=#EA6B66;fontSize=15;" edge="1" parent="1">
          <mxGeometry width="50" height="50" relative="1" as="geometry">
            <mxPoint x="300" y="600" as="sourcePoint" />
            <mxPoint x="320" y="580" as="targetPoint" />
          </mxGeometry>
        </mxCell>
        <mxCell id="VbmjDNN18D_bO1DEMlyu-94" value="" style="ellipse;whiteSpace=wrap;html=1;perimeterSpacing=0;strokeWidth=4;fillColor=none;strokeColor=#6c8ebf;fontSize=15;" vertex="1" parent="1">
          <mxGeometry x="340" y="620" width="20" height="20" as="geometry" />
        </mxCell>
        <mxCell id="VbmjDNN18D_bO1DEMlyu-95" value="" style="endArrow=none;html=1;rounded=0;strokeWidth=4;strokeColor=#EA6B66;fontSize=15;" edge="1" parent="1">
          <mxGeometry width="50" height="50" relative="1" as="geometry">
            <mxPoint x="300" y="620" as="sourcePoint" />
            <mxPoint x="320" y="640" as="targetPoint" />
          </mxGeometry>
        </mxCell>
        <mxCell id="VbmjDNN18D_bO1DEMlyu-96" value="" style="endArrow=none;html=1;rounded=0;strokeWidth=4;strokeColor=#EA6B66;fontSize=15;" edge="1" parent="1">
          <mxGeometry width="50" height="50" relative="1" as="geometry">
            <mxPoint x="300" y="640" as="sourcePoint" />
            <mxPoint x="320" y="620" as="targetPoint" />
          </mxGeometry>
        </mxCell>
        <mxCell id="VbmjDNN18D_bO1DEMlyu-97" value="" style="ellipse;whiteSpace=wrap;html=1;perimeterSpacing=0;strokeWidth=4;fillColor=none;strokeColor=#6c8ebf;fontSize=15;" vertex="1" parent="1">
          <mxGeometry x="300" y="660" width="20" height="20" as="geometry" />
        </mxCell>
        <mxCell id="VbmjDNN18D_bO1DEMlyu-98" value="" style="endArrow=none;html=1;rounded=0;strokeWidth=4;strokeColor=#EA6B66;fontSize=15;" edge="1" parent="1">
          <mxGeometry width="50" height="50" relative="1" as="geometry">
            <mxPoint x="380" y="580" as="sourcePoint" />
            <mxPoint x="400" y="600" as="targetPoint" />
          </mxGeometry>
        </mxCell>
        <mxCell id="VbmjDNN18D_bO1DEMlyu-99" value="" style="endArrow=none;html=1;rounded=0;strokeWidth=4;strokeColor=#EA6B66;fontSize=15;" edge="1" parent="1">
          <mxGeometry width="50" height="50" relative="1" as="geometry">
            <mxPoint x="380" y="600" as="sourcePoint" />
            <mxPoint x="400" y="580" as="targetPoint" />
          </mxGeometry>
        </mxCell>
        <mxCell id="VbmjDNN18D_bO1DEMlyu-100" value="" style="endArrow=none;html=1;rounded=0;strokeWidth=3;fontSize=15;" edge="1" parent="1">
          <mxGeometry width="50" height="50" relative="1" as="geometry">
            <mxPoint x="10" y="690" as="sourcePoint" />
            <mxPoint x="10" y="570" as="targetPoint" />
          </mxGeometry>
        </mxCell>
        <mxCell id="VbmjDNN18D_bO1DEMlyu-101" value="" style="endArrow=none;html=1;rounded=0;strokeWidth=3;fontSize=15;" edge="1" parent="1">
          <mxGeometry width="50" height="50" relative="1" as="geometry">
            <mxPoint x="-30" y="650" as="sourcePoint" />
            <mxPoint x="90" y="650" as="targetPoint" />
          </mxGeometry>
        </mxCell>
        <mxCell id="VbmjDNN18D_bO1DEMlyu-102" value="" style="endArrow=none;html=1;rounded=0;strokeWidth=3;fontSize=15;" edge="1" parent="1">
          <mxGeometry width="50" height="50" relative="1" as="geometry">
            <mxPoint x="50" y="690" as="sourcePoint" />
            <mxPoint x="50" y="570" as="targetPoint" />
          </mxGeometry>
        </mxCell>
        <mxCell id="VbmjDNN18D_bO1DEMlyu-103" value="" style="endArrow=none;html=1;rounded=0;strokeWidth=3;fontSize=15;" edge="1" parent="1">
          <mxGeometry width="50" height="50" relative="1" as="geometry">
            <mxPoint x="-30" y="610" as="sourcePoint" />
            <mxPoint x="90" y="610" as="targetPoint" />
          </mxGeometry>
        </mxCell>
        <mxCell id="VbmjDNN18D_bO1DEMlyu-104" value="" style="ellipse;whiteSpace=wrap;html=1;perimeterSpacing=0;strokeWidth=4;fillColor=none;strokeColor=#6c8ebf;fontSize=15;" vertex="1" parent="1">
          <mxGeometry x="60" y="620" width="20" height="20" as="geometry" />
        </mxCell>
        <mxCell id="VbmjDNN18D_bO1DEMlyu-105" value="" style="endArrow=none;html=1;rounded=0;strokeWidth=4;strokeColor=#EA6B66;fontSize=15;" edge="1" parent="1">
          <mxGeometry width="50" height="50" relative="1" as="geometry">
            <mxPoint x="60" y="660" as="sourcePoint" />
            <mxPoint x="80" y="680" as="targetPoint" />
          </mxGeometry>
        </mxCell>
        <mxCell id="VbmjDNN18D_bO1DEMlyu-106" value="" style="endArrow=none;html=1;rounded=0;strokeWidth=4;strokeColor=#EA6B66;fontSize=15;" edge="1" parent="1">
          <mxGeometry width="50" height="50" relative="1" as="geometry">
            <mxPoint x="60" y="680" as="sourcePoint" />
            <mxPoint x="80" y="660" as="targetPoint" />
          </mxGeometry>
        </mxCell>
        <mxCell id="VbmjDNN18D_bO1DEMlyu-107" value="" style="endArrow=none;html=1;rounded=0;strokeWidth=4;strokeColor=#EA6B66;fontSize=15;" edge="1" parent="1">
          <mxGeometry width="50" height="50" relative="1" as="geometry">
            <mxPoint x="-20" y="580" as="sourcePoint" />
            <mxPoint y="600" as="targetPoint" />
          </mxGeometry>
        </mxCell>
        <mxCell id="VbmjDNN18D_bO1DEMlyu-108" value="" style="endArrow=none;html=1;rounded=0;strokeWidth=4;strokeColor=#EA6B66;fontSize=15;" edge="1" parent="1">
          <mxGeometry width="50" height="50" relative="1" as="geometry">
            <mxPoint x="-20" y="600" as="sourcePoint" />
            <mxPoint y="580" as="targetPoint" />
          </mxGeometry>
        </mxCell>
        <mxCell id="VbmjDNN18D_bO1DEMlyu-109" value="" style="ellipse;whiteSpace=wrap;html=1;perimeterSpacing=0;strokeWidth=4;fillColor=none;strokeColor=#6c8ebf;fontSize=15;" vertex="1" parent="1">
          <mxGeometry x="20" y="620" width="20" height="20" as="geometry" />
        </mxCell>
        <mxCell id="VbmjDNN18D_bO1DEMlyu-110" value="" style="endArrow=none;html=1;rounded=0;strokeWidth=4;strokeColor=#EA6B66;fontSize=15;" edge="1" parent="1">
          <mxGeometry width="50" height="50" relative="1" as="geometry">
            <mxPoint x="-20" y="620" as="sourcePoint" />
            <mxPoint y="640" as="targetPoint" />
          </mxGeometry>
        </mxCell>
        <mxCell id="VbmjDNN18D_bO1DEMlyu-111" value="" style="endArrow=none;html=1;rounded=0;strokeWidth=4;strokeColor=#EA6B66;fontSize=15;" edge="1" parent="1">
          <mxGeometry width="50" height="50" relative="1" as="geometry">
            <mxPoint x="-20" y="640" as="sourcePoint" />
            <mxPoint y="620" as="targetPoint" />
          </mxGeometry>
        </mxCell>
        <mxCell id="VbmjDNN18D_bO1DEMlyu-112" value="" style="ellipse;whiteSpace=wrap;html=1;perimeterSpacing=0;strokeWidth=4;fillColor=none;strokeColor=#6c8ebf;fontSize=15;" vertex="1" parent="1">
          <mxGeometry x="-20" y="660" width="20" height="20" as="geometry" />
        </mxCell>
        <mxCell id="VbmjDNN18D_bO1DEMlyu-113" value="" style="endArrow=none;html=1;rounded=0;strokeWidth=4;strokeColor=#EA6B66;fontSize=15;" edge="1" parent="1">
          <mxGeometry width="50" height="50" relative="1" as="geometry">
            <mxPoint x="20" y="660" as="sourcePoint" />
            <mxPoint x="40" y="680" as="targetPoint" />
          </mxGeometry>
        </mxCell>
        <mxCell id="VbmjDNN18D_bO1DEMlyu-114" value="" style="endArrow=none;html=1;rounded=0;strokeWidth=4;strokeColor=#EA6B66;fontSize=15;" edge="1" parent="1">
          <mxGeometry width="50" height="50" relative="1" as="geometry">
            <mxPoint x="20" y="680" as="sourcePoint" />
            <mxPoint x="40" y="660" as="targetPoint" />
          </mxGeometry>
        </mxCell>
        <mxCell id="VbmjDNN18D_bO1DEMlyu-115" value="" style="endArrow=classic;html=1;rounded=0;strokeWidth=4;strokeColor=#000000;dashed=1;" edge="1" parent="1">
          <mxGeometry width="50" height="50" relative="1" as="geometry">
            <mxPoint x="190" y="470" as="sourcePoint" />
            <mxPoint x="350" y="550" as="targetPoint" />
          </mxGeometry>
        </mxCell>
        <mxCell id="VbmjDNN18D_bO1DEMlyu-116" value="" style="endArrow=none;html=1;rounded=0;strokeWidth=4;strokeColor=#97D077;endFill=0;startArrow=classic;startFill=1;" edge="1" parent="1">
          <mxGeometry width="50" height="50" relative="1" as="geometry">
            <mxPoint x="190" y="470" as="sourcePoint" />
            <mxPoint x="30" y="550" as="targetPoint" />
          </mxGeometry>
        </mxCell>
        <mxCell id="VbmjDNN18D_bO1DEMlyu-135" value="&lt;div style=&quot;font-size: 26px;&quot;&gt;&lt;font style=&quot;font-size: 26px;&quot;&gt;Visited +1&lt;/font&gt;&lt;/div&gt;&lt;div style=&quot;font-size: 26px;&quot;&gt;&lt;font style=&quot;font-size: 26px;&quot;&gt;&lt;font style=&quot;font-size: 26px;&quot;&gt;Score +1&lt;/font&gt;&lt;font style=&quot;font-size: 26px;&quot;&gt;&lt;br style=&quot;font-size: 26px;&quot;&gt;&lt;/font&gt;&lt;/font&gt;&lt;/div&gt;" style="text;html=1;align=center;verticalAlign=middle;whiteSpace=wrap;rounded=0;strokeColor=none;fontStyle=1;fontColor=#66CC00;fontSize=26;" vertex="1" parent="1">
          <mxGeometry x="-170" y="590" width="120" height="80" as="geometry" />
        </mxCell>
        <mxCell id="VbmjDNN18D_bO1DEMlyu-136" value="&lt;div style=&quot;font-size: 26px;&quot;&gt;&lt;font style=&quot;font-size: 26px;&quot;&gt;Visited +1&lt;/font&gt;&lt;/div&gt;&lt;div style=&quot;font-size: 26px;&quot;&gt;&lt;font style=&quot;font-size: 26px;&quot;&gt;&lt;font style=&quot;font-size: 26px;&quot;&gt;Score +1&lt;/font&gt;&lt;font style=&quot;font-size: 26px;&quot;&gt;&lt;br style=&quot;font-size: 26px;&quot;&gt;&lt;/font&gt;&lt;/font&gt;&lt;/div&gt;" style="text;html=1;align=center;verticalAlign=middle;whiteSpace=wrap;rounded=0;strokeColor=none;fontStyle=1;fontColor=#66CC00;fontSize=26;" vertex="1" parent="1">
          <mxGeometry x="-20" y="360" width="120" height="80" as="geometry" />
        </mxCell>
        <mxCell id="VbmjDNN18D_bO1DEMlyu-137" value="&lt;div style=&quot;font-size: 26px;&quot;&gt;&lt;font style=&quot;font-size: 26px;&quot;&gt;Visited +1&lt;/font&gt;&lt;/div&gt;&lt;div style=&quot;font-size: 26px;&quot;&gt;&lt;font style=&quot;font-size: 26px;&quot;&gt;&lt;font style=&quot;font-size: 26px;&quot;&gt;Score +1&lt;/font&gt;&lt;font style=&quot;font-size: 26px;&quot;&gt;&lt;br style=&quot;font-size: 26px;&quot;&gt;&lt;/font&gt;&lt;/font&gt;&lt;/div&gt;" style="text;html=1;align=center;verticalAlign=middle;whiteSpace=wrap;rounded=0;strokeColor=none;fontStyle=1;fontColor=#66CC00;fontSize=26;" vertex="1" parent="1">
          <mxGeometry x="230" y="120" width="120" height="80" as="geometry" />
        </mxCell>
      </root>
    </mxGraphModel>
  </diagram>
</mxfile>
